<svg height="123" viewBox="0 0 104 123" width="104" xmlns="http://www.w3.org/2000/svg"><path d="M51.9 60.51L33.824 73.634 40.79 52.33 22.718 39.202h22.315L51.9 18l6.966 21.204H81.18L63.108 52.33l6.866 21.305zm9.288 44.022h3.13l-.1-.1c-.202-.203-.404-.607-.404-1.112v-4.038h.303l.908 2.726h1.01l.808-2.726h.303v4.038c0 .505-.202.808-.404 1.11l-.1.102h3.23l-.202-.1c-.202-.203-.404-.607-.404-1.112v-6.058c0-.505.202-.808.404-1.11l.1-.102h-3.13l-1.01 3.13h-.302l-1.21-3.13h-3.03l.1.1c.202.203.404.607.404 1.01v6.06c0 .605-.202.908-.404 1.11zm-27.16 0h4.34c1.415 0 2.222-.707 2.222-2.02v-4.34c0-1.314-.807-2.02-2.22-2.02h-4.343l.1.1c.203.202.405.606.405 1.11v6.06c0 .504-.202.807-.404 1.11zm2.927-1.414v-5.553h.707c.505 0 .606.303.606.505v4.544c0 .202-.1.504-.606.504zm5.352 1.414h2.726l-.1-.1c-.102-.405-.203-.607-.102-1.01l.103-.606h1.616l.1.706c0 .303 0 .606-.1.91l-.1.1h3.027v-.202c-.1-.303-.303-.606-.404-1.01l-.91-5.957c-.1-.404 0-.808.102-1.11l.1-.203H43.72l.1.202c.102.303.203.707.102 1.212l-.908 6.058c0 .303-.1.505-.303.808zm2.827-3.23l.505-3.737h.3l.506 3.736zm5.755 3.23h3.13l-.103-.1c-.2-.304-.403-.607-.403-1.112v-4.038h.302l.91 2.726h1.01l.807-2.726h.303v4.038c0 .505-.202.808-.404 1.11l-.1.102h3.23l-.1-.1c-.203-.203-.405-.607-.405-1.112v-6.058c0-.404.202-.808.404-1.01l.1-.1h-3.13l-1.01 3.13h-.3l-1.213-3.13h-3.03l.102.1c.2.202.403.606.403 1.11v6.06c0 .504-.202.807-.404 1.11zM0 93.222h11.107v-3.735l-.303.202c-.505.402-.91.705-2.02.705h-3.23v-4.04h2.02c1.11 0 1.513.304 2.018.708l.303.202V82.62l-.303.203c-.505.404-.91.707-2.02.707h-2.02v-4.14h3.232c1.11 0 1.515.303 2.02.707l.303.202V76.56H0h.202c.404.505.707.91.707 2.02v12.42c0 1.11-.305 1.514-.71 2.018zm12.52-12.216c0 1.918.707 3.332 2.222 4.342l1.918 1.413c1.515 1.113 2.02 1.517 2.02 2.324 0 1.01-.91 1.414-2.222 1.414-1.11 0-2.322-.404-3.13-.808l-.808-.405v4.24l.404-.1c.404-.1.91-.202 1.414-.202.808 0 2.12.202 3.23.202 3.636 0 5.756-1.615 5.756-4.745 0-1.818-.807-3.332-2.524-4.544l-2.02-1.515c-1.11-.805-1.716-1.31-1.716-2.12 0-.907.606-1.412 2.02-1.412 1.01 0 2.02.303 2.726.808l.707.404v-4.14l-.303.1c-.303.1-.808.202-1.313.202-.806 0-2.017-.202-3.13-.202-3.23 0-5.25 1.616-5.25 4.746zm11.51-.808l.304-.202c.505-.404 1.212-.808 2.423-.808h.91V90.8c0 1.11-.405 1.616-.81 2.12l-.2.303h6.764l-.2-.303c-.403-.504-.807-1.01-.807-2.12V79.188h.908c1.213 0 1.92.505 2.425.808l.303.202V76.26H24.03zm13.23 13.025h6.462l-.202-.303c-.403-.504-.706-.908-.706-2.02v-4.644h1.21l2.627 6.866H52c-.505-.404-.91-1.01-1.212-1.716l-2.322-5.756c1.11-.706 1.616-1.918 1.616-3.533V80.5c0-2.624-1.515-4.14-4.24-4.14h-8.584l.202.304c.404.505.707.91.707 2.02v12.42c0 1.11-.303 1.513-.707 2.018zm5.655-9.794v-4.243h1.413c1.01 0 1.11.606 1.11 1.01v2.12c0 .505-.1 1.11-1.11 1.11zm10.3 9.792H64.32v-3.736l-.2.202c-.506.403-.91.706-2.02.706h-3.232v-4.04h2.02c1.11 0 1.514.304 2.02.708l.302.202V82.62l-.303.203c-.505.404-.91.707-2.02.707h-2.02v-4.14H62.1c1.11 0 1.514.303 2.02.707l.3.202V76.56H53.313l.202.303c.403.505.706.91.706 2.02v12.42c0 1.11-.302 1.513-.705 2.018zm13.327 0h10.5v-3.837l-.302.202c-.505.404-1.01.808-2.12.808h-2.323V78.583c0-1.11.303-1.515.707-2.02l.202-.303H66.64l.203.303c.404.505.707.91.707 2.02v12.42c0 1.11-.303 1.514-.707 2.018zm11.61 0h10.502v-3.837l-.302.202c-.505.404-1.01.808-2.12.808h-2.424V78.583c0-1.11.303-1.515.707-2.02l.202-.303H78.15l.203.303c.404.505.707.91.707 2.02v12.42c0 1.11-.303 1.514-.707 2.018zm11.41 0h5.353l-.1-.303c-.304-.808-.304-1.21-.203-2.02l.202-1.313h3.332L98.348 91c.1.506 0 1.11-.202 1.818l-.202.403h5.957l-.202-.302c-.303-.504-.606-1.21-.707-2.12l-2.02-12.016c-.1-.807-.1-1.514.103-2.12l.1-.303h-9.087l.1.303c.203.707.304 1.313.203 2.322l-1.92 12.017c-.1.505-.303 1.11-.606 1.615zm5.555-6.462l.908-7.47h.606l1.01 7.47z" fill="#fff"/></svg>